<mxfile host="app.diagrams.net" modified="2023-11-26T10:08:33.703Z" agent="Mozilla/5.0 (Windows NT 10.0; Win64; x64) AppleWebKit/537.36 (KHTML, like Gecko) Chrome/119.0.0.0 Safari/537.36" version="22.1.4" etag="-8ERjb1kdZ0YHJ3NmVL6" type="github">
  <diagram name="페이지-1" id="0Rt7GIt0XN54R2oLnqR4">
    <mxGraphModel>
      <root>
        <mxCell id="0" />
        <mxCell id="1" parent="0" />
      </root>
    </mxGraphModel>
  </diagram>
</mxfile>
